<?xml version="1.0" encoding="utf-8"?>
<!-- Generator: Adobe Illustrator 21.0.0, SVG Export Plug-In . SVG Version: 6.00 Build 0)  -->
<svg version="1.1" id="Layer_1" xmlns="http://www.w3.org/2000/svg" xmlns:xlink="http://www.w3.org/1999/xlink" x="0px" y="0px"
	 viewBox="0 0 312 96.2" style="enable-background:new 0 0 312 96.2;" xml:space="preserve">
<style type="text/css">
	.st0{fill:#25363F;}
	.st1{fill:#E5E5E5;}
	.st2{fill:#C5C8CA;}
	.st3{fill:#9DA4A8;}
	.st4{fill:#5A676D;}
	.st5{fill:#B7BBBD;}
	.st6{fill:#4A5960;}
	.st7{fill:#6E797F;}
	.st8{fill:#9CA3A7;}
	.st9{fill:#CBCFD1;}
	.st10{fill:#9EA6A9;}
	.st11{fill:#CACED1;}
	.st12{fill:#CACED0;}
	.st13{fill:#CB584C;}
	.st14{fill:#FED364;}
	.st15{fill:#5B5D48;}
	.st16{fill:#3D4844;}
	.st17{fill:#616249;}
	.st18{fill:#525747;}
	.st19{fill:#5B5E49;}
	.st20{fill:#444C45;}
	.st21{fill:#C7AB5B;}
	.st22{fill:#837A4F;}
	.st23{fill:#716D4C;}
	.st24{fill:#B39D57;}
	.st25{fill:#A59355;}
	.st26{fill:#9D8D54;}
	.st27{fill:#CAAE5B;}
	.st28{fill:#B8A058;}
	.st29{fill:#606149;}
	.st30{fill:#C9AD5B;}
	.st31{fill:#5F6049;}
	.st32{fill:#B29C57;}
	.st33{fill:#6A684B;}
	.st34{fill:#64644A;}
	.st35{fill:#8E8251;}
	.st36{fill:#5A5C48;}
	.st37{fill:#555948;}
	.st38{fill:#4B5246;}
	.st39{fill:#736E4D;}
	.st40{fill:#5C5E49;}
	.st41{fill:#61624A;}
	.st42{fill:#948652;}
	.st43{fill:#726E4C;}
	.st44{fill:#62634A;}
	.st45{fill:#4C5346;}
	.st46{fill:#5D5F49;}
	.st47{fill:#7E774E;}
	.st48{fill:#5E6049;}
	.st49{fill:#69674B;}
	.st50{fill:#5A5D48;}
	.st51{fill:#545847;}
	.st52{fill:#63634A;}
	.st53{fill:#81794F;}
	.st54{fill:#B09A57;}
	.st55{fill:#C2A85A;}
	.st56{fill:#B59E57;}
	.st57{fill:#BFA659;}
	.st58{fill:#CBAE5B;}
	.st59{fill:#BBBFC2;}
	.st60{fill:#CACDCE;}
	.st61{fill:#BFC3C5;}
	.st62{fill:#BCC0C2;}
	.st63{fill:#BDC1C4;}
	.st64{fill:#B8BCBF;}
	.st65{fill:#C4C7C9;}
	.st66{fill:#C7CACC;}
	.st67{fill:#C1C5C7;}
	.st68{fill:#CBCBCB;}
	.st69{fill:#B2B2B2;}
	.st70{fill:#263740;}
	.st71{fill:#BE5347;}
	.st72{fill:#F1B155;}
	.st73{fill:#C1E1F1;}
</style>
<path class="st0" d="M749-11.8c0,9.3,0,18.7,0,28c-1.1,4.3-0.2,8.6-0.5,12.9c0,2.6,0,5.2,0,7.7c0,1.9,0,3.9,0,5.8
	c0.1,39.5-3.8,78.7-10.1,117.7c-8.8,54.9-22,108.7-39.8,161.3c-13,38.4-28.1,75.9-45.8,112.4c-20.6,42.7-43.9,83.8-70.2,123.2
	c-21.9,32.7-45.6,64-71.2,94c-16,18.8-32.7,36.9-50,54.5c-16.4,16.8-33.6,32.8-51.3,48.2c-27.6,24.1-56.4,46.8-86.4,67.9
	c-28.3,19.8-57.4,38.1-87.6,55c-60.1,33.6-123.1,60.6-188.8,81.1c-43.9,13.7-88.7,24.3-134.1,31.8c-26.9,4.5-54,8.2-81.2,9.7
	c-13.8,0.8-27.6,1.3-41.4,1.2c-2.2,0-4.3,0-6.4,0c-2,0.1-3.8-0.1-5.2-1.7c-3.7-6.5-5.8-13.8-8.5-20.8
	c-28.2-71.5-64.4-138.6-108.1-201.8c-22.1-32-46.1-62.4-71.8-91.5c-18.1-20.5-36.8-40.4-56.5-59.3c-39.7-37.9-82.1-72.6-127.3-103.7
	c-41.7-28.7-85.3-54-130.8-76.1c-34.8-16.9-70.6-31.5-107.1-44.2c-45.1-15.6-91-28-137.9-36.9c-29.3-5.6-58.7-10-88.4-12.8
	c-19.2-1.8-38.5-3-57.7-4c-23.8-1.2-47.6-0.5-71.4-0.6c-1.4,0-2.7,0-3.9-0.7c-2.2-1.7-3-4.3-3.9-6.8c-18.6-52.3-33-105.8-42.7-160.5
	c-4.7-26.6-8.4-53.2-11-80.1c-2-20.1-2.3-40.2-2.8-60.3c-0.6-20.7-0.5-41.3-0.3-62c0.2-19,0.2-38,1.6-56.9
	c1.7-23.7,4.6-47.4,8.2-70.9c6.8-43.6,16.1-86.7,28.5-129.1c12.6-42.9,27.8-84.8,46.1-125.6c24.3-54.1,52.7-105.9,86-154.9
	c22.7-33.4,47.2-65.3,73.8-95.7c16.7-19.1,33.7-37.8,51.8-55.5c31.2-30.6,64-59.2,98.9-85.6c45.2-34.3,92.9-64.6,143.3-90.8
	c40.7-21.2,82.6-39.6,125.8-55c46.5-16.6,94-29.6,142.4-39.1c28.4-5.6,57-9.8,85.8-12.9c24.2-2.6,48.4-3.3,72.7-3.9
	c21.2-0.5,42.3-0.5,63.5-0.3c18,0.2,36,0.1,53.9,1.6c32.2,2.6,64.2,6.8,96,12.5c50.5,8.9,99.8,21.9,148.3,38.4
	c23.5,8,46.7,16.9,69.4,26.8c2,0.9,4.1,1.5,5.6,3.2c2.1,4.1-1.1,5.8-3.6,7.5c-11,7.5-21.8,15.4-32.2,23.7
	c-15.4,12.2-30.3,25-44.7,38.4c-49.8,45.9-91.7,98.4-128.5,155c-31.9,49-61.6,99.4-89.6,150.7c-18.7,34.4-36.9,69.1-54,104.3
	c-7.7,15.9-15.5,31.7-22.6,47.9c-1.5,3.3-2.6,6.9-5.7,9.3c-1.6,0.8-3.3,0.6-4.9,0c-19.9-7.7-40.2-6.4-60.5-2.3
	c-21.9,4.3-42.6,12.2-62.8,21.4c-24.4,11.2-47.6,24.6-69.9,39.6c-14.7,9.8-26.9,22.4-38.2,35.7c-46.5,54.5-83.6,115.3-118.1,177.9
	c-14.1,25.5-27.4,51.5-37.8,78.8c-2.2,5.8-4,11.6-3.9,17.9c0.1,7.1,3.3,12.3,9.2,16.2c6.6,4.3,14.1,6.3,21.7,6.9
	c19.6,1.4,38.9,0,57.6-6.8c7.8-2.8,13.6-8.4,19.1-14.2c18.4-19.5,34.5-41,50.1-62.8c19.3-26.9,38.2-54.2,56-82.1
	c4.2-6.6,10-10.4,17.4-12.5c17.9-5.1,36.3-6.5,54.6-9.1c7.9-1.1,15.8-2.7,23.7-3.3c2.2-0.2,4.3-0.7,6.1,1.2c0.8,1.4,0.8,2.9,0.4,4.3
	c-1.7,5.8-2.5,11.9-4.7,17.6c-1.9,2.8-4.5,2.3-7.1,1.3c-14.3-5.5-28.6-1.2-37.9,13.3c-10.7,16.6-21.7,33.1-32.3,49.8
	c-8.9,14.1-5.1,31.3,8.7,40.8c6.7,4.6,13.8,8.7,20.5,13.3c2,1.4,4.2,2.7,4.8,5.5c0.2,2.5-1.2,4.5-2.4,6.4
	C-387,14.9-410.1,56.8-431,99.8c-25.7,52.7-49.1,106.5-68.9,161.8c-15.1,42.1-28.4,84.6-36.6,128.6c-3.9,20.9-5.4,41.9-4.4,63.1
	c0.5,9.9,2.8,19.4,7.8,28.2c5.9,10.3,14.8,15.3,26.6,15.7c14.6,0.5,27.8-4.4,40.8-10.4c21.6-9.9,41.1-23.3,60.1-37.4
	c22.1-16.4,42.8-34.4,63.2-52.9c20.5-18.6,40.3-37.9,59.5-57.8c30.8-32.1,60.5-65.2,88.6-99.6c27.6-33.8,54.3-68.4,78.3-104.8
	c1.3-1.9,2.5-3.9,4.8-4.9c2.7-0.8,4.8,0.7,7,1.9c3.6,2,7,4.6,10.7,6.4c13.1,6.4,27.7,3,36.6-8.6c5.2-6.8,9.4-14.1,14.1-21.2
	c6.7-10.3,13.6-20.6,20.1-31c8.6-13.9,7.7-25.9-3.2-38.4c-1.5-1.8-3.2-3.4-2.9-6.1c5.3-6.3,10.9-12.3,19.3-14.5
	c1.8,1,2.4,2.7,2.9,4.5c6.5,24.3,15.2,48,19.9,72.7c1.9,10.1,0.5,19.3-5.5,28.5c-29.2,45.2-57.8,90.8-81.4,139.3
	c-4.2,8.7-8,17.6-10.4,27c-2.8,11,0.2,21.5,3,32c4.2,15.3,9.6,30.2,20,42.7c6,7.2,13.2,12.5,23.3,10.5c6.8-1.3,11.9-5.8,16.8-10.4
	c14.6-14,27.5-29.5,40.1-45.2c37.5-46.7,71.9-95.5,102.5-147c15.8-26.7,30.6-53.9,41.1-83.2c5-13.9,7.1-28.4,9.1-42.9
	c2.3-17.2,3.5-34.4,4.2-51.7c1.1-27.8-0.7-55.2-7.8-82.1c-4.6-17.5-11.9-33.6-25-46.5c-1-0.9-1.8-2-2.1-3.3
	c-0.3-3.2,1.7-5.3,3.6-7.4c42.9-48.6,83.9-98.8,122.9-150.5c37.7-49.8,74-100.7,106.4-154.1c27.9-46,51.3-94.1,69.4-144.8
	c10.3-28.9,18.7-58.3,25.1-88.4c0.6-2.8,0.5-6.3,4.6-6.8c2.8,0.7,4.5,2.8,6.3,4.7c18.9,20.2,37,41.1,54.2,62.7
	c32.9,41.4,62.5,85.1,88.4,131.2c25.9,46.3,48.4,94.2,66.9,143.9c20,54,35.1,109.3,45.5,165.9c5.1,27.8,9.1,55.8,11.6,84
	c1.7,18.7,1.9,37.5,2.3,56.3c0,1.9,0,3.8,0,5.8c0,2,0,4,0,5.9c0,2.6,0,5.1,0,7.7C748.8-18,747.9-14.8,749-11.8z"/>
<path class="st1" d="M-310.8,1000.1c-1.6,0.2-3-0.3-4.3-1c-3.6-0.7-7.1-0.7-10.7,0c-1.5-0.3-2.9-0.7-4.4-1c-2.6-0.6-5.1-0.7-7.7,0
	c-1.1-0.3-2.2-0.7-3.3-1c-2.6-0.6-5.1-0.6-7.7,0c-1.1-0.3-2.2-0.7-3.4-1c-2.2-0.6-4.4-0.6-6.6,0c-0.9,0-1.7-0.3-2.2-1.1
	c-2.3-0.5-4.5-0.6-6.8,0.1c-1.1-0.3-2.2-0.7-3.3-1c-1.6-0.7-3.2-0.7-4.7,0c-0.8-0.3-1.6-0.7-2.3-1c-1.9-0.6-3.8-0.6-5.6,0
	c-0.8-0.3-1.6-0.7-2.4-1c-1.6-0.6-3.2-0.7-4.8,0.1c-0.7-0.4-1.4-0.7-2.1-1.1c-1.6-0.6-3.2-0.6-4.8,0c-0.8-0.3-1.6-0.6-2.3-1
	c-1.5-0.7-3.1-0.6-4.7,0c-15.3-3.1-30.7-5.4-46-8.5c-23.5-4.8-46.7-10.4-69.7-16.8c-43.8-12.1-86.6-27.3-128.3-45.5
	c-41.9-18.2-82.4-39.1-121.4-62.8c-38.1-23.2-74.5-49-109.2-77c-32.8-26.5-63.7-55-93-85.3c-24.1-24.9-46.6-51.1-67.9-78.4
	c-24.4-31.3-46.8-63.9-67.4-97.7c-19.2-31.6-36.3-64.3-51.9-97.9c-10.4-22.3-20-45-28.5-68.1c-0.7-2-1.8-3.9-1.7-6.2
	c30.3-1.6,60.6-0.9,90.9,0.8c44.6,2.5,88.9,8,132.7,16.7C-795.8,397-644.1,469.7-511.7,582c132.9,112.7,229.8,251.1,291.2,414.2
	c0.2,0.6,0.4,1.3,0.6,1.9c0.9,2.8-1,2.6-2.7,2.6c-3.3,0-6.6,0-9.9,0c-3.8,0.3-7.7-0.6-11.5,0.5c-5.7,0-11.3,0-17,0
	c-9.7-0.8-19.3-0.8-29,0c-1.3,0-2.7,0-4,0c-1.1-1.2-2.7-0.9-4.1-1.1C-302.4,999.4-306.6,999.5-310.8,1000.1z"/>
<path class="st2" d="M-290,1001.2c3.8-2,7.9-1,11.8-0.9c5.7,0.2,11.6-1.2,17.2,0.9C-270.7,1001.2-280.3,1001.2-290,1001.2z"/>
<path class="st3" d="M-232.9,1000.4c3.1-0.1,6.2-0.1,9.3-0.2c1.6,0,3.4,0.3,3.7-2.1c0.9,1.6,2.2,2.3,4,2.3c0.4,0.2,0.5,0.4,0.3,0.6
	c-0.1,0.2-0.3,0.2-0.4,0.2c-5.7,0-11.3,0-17,0C-233.7,1000.9-233.6,1000.6-232.9,1000.4z"/>
<path class="st4" d="M748.1,29.3c0-4.4-0.9-8.8,0.9-13.1c0,4.3,0,8.7,0,13C748.8,29.7,748.5,29.7,748.1,29.3z"/>
<path class="st5" d="M-232.9,1000.4c0,0.3-0.1,0.6-0.1,0.8c-3.7,0-7.3,0-11,0C-240.4,999.4-236.6,1000.4-232.9,1000.4z"/>
<path class="st6" d="M749-11.8c-1.8-2.9-0.8-6-0.9-9.1c0.3-0.5,0.6-0.4,0.9,0.1C749-17.8,749-14.8,749-11.8z"/>
<path class="st7" d="M749-20.8c-0.3,0-0.6-0.1-0.9-0.1c0-2.7,0-5.3,0-8c0.3-0.5,0.6-0.5,0.9,0.1C749-26.1,749-23.5,749-20.8z"/>
<path class="st8" d="M748.1,29.3c0.3,0,0.6-0.1,0.9-0.1c0,2.7,0,5.3,0,8c-0.2,0.5-0.5,0.6-0.8,0.1C748.2,34.6,748.1,32,748.1,29.3z"
	/>
<path class="st9" d="M-216,1001.2c0-0.3,0-0.5,0.1-0.8c2.3,0,4.7,0,7,0c0,0.3-0.1,0.6,0,0.9C-211.3,1001.2-213.7,1001.2-216,1001.2z
	"/>
<path class="st10" d="M749-28.8c-0.3,0-0.6-0.1-0.9-0.1c0-2,0-4,0-6c0.3-0.5,0.6-0.5,0.8,0.1C749-32.8,749-30.8,749-28.8z"/>
<path class="st11" d="M748.2,37.3c0.3,0,0.6,0,0.8-0.1c0,2,0,4,0,6l-0.4,0.1l-0.4,0C748.2,41.3,748.2,39.3,748.2,37.3z"/>
<path class="st12" d="M749-34.8l-0.4-0.1l-0.4,0c0-2,0-4,0-6c0.3-0.1,0.6-0.1,0.8,0.1C749-38.8,749-36.8,749-34.8z"/>
<path class="st1" d="M149.6-915.6c2.7,0.8,4.5-1,6.3-2.3c18.7-12.6,38.4-23.3,58.3-33.8c2,1.3,3.4,3,4.7,5
	c11.9,18.5,25.4,35.8,40.3,52c32.6,35.4,70.8,63,114,83.7c32.5,15.6,66.6,25.9,102.2,31.4c2.6,0.4,5.4,0.4,7.4,2.5
	c-1.2,18.7-2.5,37.3-5.3,55.8c-1.5,9.5-3.1,19-4.8,28.4c-0.2,1.4-0.3,2.6,0.3,3.8c-2.6,2-2,5.1-2.5,7.7
	c-16,74.8-44.3,144.8-81.9,211.1c-32.8,57.7-71.3,111.6-110.8,164.7c-41.9,56.3-86.3,110.5-132.5,163.2c-1.2,1.4-2.3,2.9-3.4,4.3
	c-0.2,2.3-1.6,3.9-3,5.6c-10.1,11.9-20.7,23.5-31.3,35C81.9-69.7,56.2-42.2,29.2-16C18.2-5.3,7.1,5.1-4.3,15.5
	c-1.6,1.5-3.3,2.9-5.7,2.7c-6.3,4.9-12.5,9.7-18.8,14.6c-2.8,2-4.7-0.4-6.6-1.6c-14-9-28-18-41.9-27.2C-83.4-0.2-90-3.8-96-8.4
	c-7.3-4.7-14.7-9.3-22-14.2c-1.8-1.2-3.7-2.2-4.7-4.2c-0.8-3.3,1.3-5.8,2.7-8.3c11.2-19.7,22.1-39.6,31.9-60
	c12.8-26.8,24.8-53.9,32.4-82.7c2.6-9.8,4.8-19.7,4.7-30c0-1,0-2-0.1-3c-1.2-13.8-9.1-18.8-22-13.7c-14,5.6-25.6,14.9-36.7,24.7
	c-36,32.1-65.8,69.6-94.5,108.2c-2,2.7-3.5,6.2-7.5,6.8c-3.3-0.2-5.7-2.5-8.3-4.2c-6.6-4.1-13.1-8.4-19.5-12.7
	c-14.1-8.8-28-18-41.9-27.1c-10.5-6.8-21-13.5-31.4-20.5c-2.1-1.4-4.9-2.5-4.7-5.9c1.8-7.7,3.6-15.3,5.4-23
	c-1.6-3.6,0.2-6.9,1.3-10.1c4.8-15.2,10.3-30.2,15.8-45.2c17.2-46.7,36.5-92.5,57-137.9c1.6-3.4,2.6-7.3,6.2-9.4
	c13.5-28.2,26.7-56.5,40.8-84.4c44-87,91.6-172.1,146.7-252.6C7.9-793.7,70.7-859.8,147.3-912.2
	C148.4-912.9,150.8-913.1,149.6-915.6z"/>
<path class="st13" d="M-9.9,18.2C6,3.3,22-11.5,37.4-26.9C72-61.4,105.3-97,137.6-133.6c1.3-1.5,2.8-2.8,4.2-4.3
	c15.1,12.4,22.8,29.3,28,47.5c7.7,27.2,9.3,55,8.6,83.1c-0.7,25-3.2,49.9-7.6,74.5c-4.4,24.9-15.2,47.5-27,69.6
	C104,211.7,55.1,280.4,0.4,345.1c-7.6,9-15.6,17.8-24.8,25.3c-12.7,10.4-24.5,9.9-35.8-2c-11.3-11.9-17-26.9-21.7-42.3
	c-2.2-7.2-3.7-14.5-4.7-21.9c-1-6.9-0.1-13.6,2.2-20.2c8.3-23.7,20.6-45.5,32.9-67.2c18.3-32.5,37.8-64.3,58.4-95.5
	c5.4-8.2,6.3-16.2,4.6-25.1C7.9,76.1,1,57-4.5,37.4C-6.2,31-8.1,24.6-9.9,18.2z"/>
<path class="st13" d="M-231.7-380.4c-10.4,23.8-21,47.4-31.1,71.4c-17.9,42.7-34.9,85.7-48.6,129.9c-0.1,0.5-0.5,0.9-0.7,1.3
	c-27.4,4.6-55.3,6.1-82.3,12.9c-7.6,1.9-13.2,5.8-17.7,12.6c-28.1,43.1-56.9,85.8-89.4,125.8c-5.5,6.7-11.3,13.1-17.2,19.5
	c-7.9,8.7-17.4,14.7-29.2,17.2c-19.2,4.1-38.4,6.2-57.9,2c-3.8-0.8-7.3-2.2-10.7-4c-10.3-5.5-14.5-14.5-12.1-25.9
	c2.5-11.6,7.3-22.5,12.3-33.2c37.5-78.9,82.3-153.4,135.8-222.6c27-34.9,61.4-59.6,100.1-79.3c28.2-14.3,57-26.8,88.3-32.4
	C-271.5-388.9-251.2-389.4-231.7-380.4z"/>
<path class="st14" d="M-110.9,129.9c-49.8,75.3-107.5,144.2-170,209.2c-41.7,43.4-85.4,84.7-134.6,119.8c-21,15-42.8,28.8-67.7,36.7
	c-7.2,2.3-14.5,3.7-22.1,3.7c-15.4-0.1-25.9-7.3-32-21.3c-5.4-12.3-6.4-25.4-6.3-38.7c0.1-27.8,5.4-55,12-81.8
	c16.4-66.6,40.8-130.4,68.3-193.1c29.8-67.9,63.3-133.9,103.4-196.4c1.2-1.1,2.6-0.7,3.7,0c7.5,4.5,15,8.9,21.9,14.4
	c0.5,0.4,0.8,1,1.1,1.6c1,3.1-0.9,5.4-2.4,7.8c-19.8,30.7-37.8,62.4-53.8,95.3c-19.8,40.9-36.7,82.8-47.3,127.2
	c-5.7,23.8-8.7,47.8-7.3,72.3c0.8,14,4.1,27.3,12.7,38.9c9.8,13.2,23.6,17.5,39.2,16.2c22.5-2,42.2-11.7,61-23.4
	c22.3-13.9,42.5-30.4,61.8-48.2c48.5-44.9,89.1-96.2,125.6-151c1.9-2.8,3.3-6.4,7.3-7.1c2.1-0.1,3.8,0.9,5.5,2
	c5.4,3.5,10.8,7.1,16.3,10.6C-112.7,125.8-110.5,127-110.9,129.9z"/>
<path class="st13" d="M-334.1-15.6c-8.6-5.4-17.1-10.8-25.7-16.3c-7.5-6.1-16-10.8-24-16.1c-17.2-11.3-21-29.3-9.8-46.6
	c10.3-15.9,21-31.6,30.9-47.8c10.5-17,29.4-20.3,42.7-13c0.7,0.4,1.6,0.3,2.4,0.5c4.9,4.6,10.9,7.6,16.4,11.3
	c19.5,12.8,39.1,25.4,58.6,38.1c1.2,0.8,2.4,1.8,3.5,2.7c2.4,3.3-0.1,5.7-1.8,8c-7.5,10.8-15,21.6-22.3,32.5
	c-13,19.4-25.2,39.2-37.2,59.1c-1.3,2.1-2.3,4.5-4.4,5.9c-2.3,1-4.2,0-6-1.2c-6.7-4.2-13.2-8.8-19.9-13
	C-332.3-12.5-332.9-14.2-334.1-15.6z"/>
<path class="st13" d="M-110.9,129.9c-7.9-6.4-16.7-11.3-25.1-16.8c-3.1-0.5-5.9-1.7-8.4-3.6c-5.1-3.7-10.5-6.7-15.7-10.2
	c-1.9-1.3-4-2.4-4.5-5c0-2.5,1.5-4.4,2.8-6.3c21.2-29.9,41.1-60.6,60-92c1.6-2.6,2.7-6,6.8-5.7c20.4,13.2,40.8,26.3,61.2,39.5
	c1.7,1.1,3.4,1.9,5.1,2.9c1.9,1.9,3.8,3.7,5.6,5.7c9.5,10.4,10.9,25.5,3,37.9c-11.1,17.4-22.2,34.8-33.7,51.9
	c-10.6,15.8-28.6,19.2-44.6,9C-102.5,134.7-106.3,131.6-110.9,129.9z"/>
<path class="st14" d="M89.9,658.1c-8.3,0.5-16.5,1.7-24.6,3.8c-20.2,5.5-29.8,19.8-33.3,39.4c-1.1,6.6-1.9,13.2-2.1,19.8
	c-0.1,0.2-0.3,0.5-0.4,0.7c-0.1-0.2-0.3-0.5-0.4-0.7c-0.4-9.3-1.5-18.5-4-27.6c-4.7-17.4-16-27.9-33.2-32.2
	c-8.4-2.1-16.9-3.3-25.6-3.3c-0.4-1.7,0.9-1.2,1.7-1.3c1.7-0.2,3.5,0.3,5.2-0.3c5.9-0.1,11.6-1.2,17.2-2.5
	c21.6-4.9,33-19.1,36.5-40.4c1-6.2,1.7-12.4,2.6-19.9c0.9,8.4,1.4,15.6,3,22.5c5.4,23.5,17.7,35.1,41.5,39c3.3,0.5,6.6,0.8,9.9,1.3
	C85.7,657.7,88.6,655.1,89.9,658.1z"/>
<path class="st14" d="M-860,141.3c7.5-0.4,14.9-1.3,22.2-3.1c21.4-5.1,32.9-17.7,36.7-40.6c1.1-6.7,1.6-13.5,2.3-20.3
	c0.1-0.3,0.2-0.5,0.3-0.8c0.1,0.3,0.2,0.5,0.3,0.8c0.3,8.2,1.2,16.2,2.9,24.3c4.5,21.7,18.2,33.6,39.5,37.5c6,1.1,12.1,1.7,18.2,2.8
	c-16.3,2.2-33.1,3.1-45.6,15.9c-12.3,12.6-13.4,29.2-15.6,45.5c-0.4-2.7-0.7-5.5-1.1-8.2c-0.4-3-0.7-6-1.2-8.9
	c-2.7-14.6-8.1-27.5-21.8-35.2c-8.3-4.6-17.4-6.6-26.7-7.7c-3.5-0.4-6.9-0.8-10.4-1.1C-860.7,141.9-860.6,141.6-860,141.3z"/>
<path class="st14" d="M-956-138.9c-8.5,0.6-16.9,1.6-25.1,3.8c-20.7,5.5-30.5,20.1-33.8,40.1c-0.9,5.4-1.4,10.8-2.6,16.3
	c-0.7-5.2-1.2-10.4-2.2-15.6c-5.1-27.8-19.3-40.8-47.3-43.5c-4.1-0.4-8.1-0.9-12.2-1.6c16.4-2.1,33.2-3,45.9-15.4
	c12.6-12.4,13.9-28.9,16.3-45.3c0.3,2.3,0.7,4.5,1,6.8c0.3,2.3,0.5,4.6,0.9,6.9c5,29.5,18.9,42.4,48.8,45.5c3.5,0.4,7,0.7,10.4,1.1
	C-955.3-139.5-955.4-139.2-956-138.9z"/>
<path class="st14" d="M-502.1-422.8c-1-6.4-1.3-12.8-2.8-19.2c-5.2-23.2-17.8-35.2-41.4-38.8c-5.6-0.9-11.2-1.4-16.8-2.1
	c-0.7-0.3-0.7-0.5,0-0.8c10-0.7,19.8-1.9,29.3-5.2c18.5-6.5,26.4-20.9,29.6-39c0.5-2.9,0.8-5.9,1.3-8.9c0.9-2-0.2-4.2,0.7-6.1
	c-0.1-0.3,0-0.6,0.1-0.9c0.3-0.7,0.6-0.6,0.8,0.1c0.5,6.8,1.3,13.5,2.7,20.2c4.5,21.9,18.3,33.9,39.9,37.6c5.9,1,11.8,1.7,17.8,2.9
	c-5.1,0.7-10.1,1.3-15.2,2c-27,4.1-41.1,18.8-44,46.1c-0.4,4-0.8,7.9-1.2,11.9C-501.4-422.2-501.7-422.1-502.1-422.8z"/>
<path class="st14" d="M-235.2-866.8c0.9,5.4,1.5,10.9,2.6,16.2c4.7,21.7,18.9,33.1,40.2,36.7c6.2,1,12.4,1.7,19.3,2.6
	c-7.4,1-14.2,1.5-20.8,2.8c-24.1,4.9-36.3,18-40,42.7c-0.5,3.3-0.9,6.6-1.3,9.9c-0.6,0.6,0.3,2.4-1.6,1.9c-0.6-6.5-1.6-12.8-3-19.2
	c-5-21.3-19.2-32.2-40-35.7c-6.7-1.1-13.5-1.7-21.4-2.7c9.1-0.7,17-1.5,24.8-3.1c21.1-4.4,33.4-17.4,37.4-38.4
	c1-5.2,1.5-10.5,2.3-15.8C-234.9-869.2-235.8-867.3-235.2-866.8z"/>
<path class="st14" d="M-814.8-531.9c-0.4-8.3-1.6-16.5-3.8-24.6c-4.7-17.6-16.2-28.1-33.7-32.3c-7.4-1.8-15-2.8-22.6-3.2
	c-0.7-0.2-0.8-0.5-0.1-0.9l0,0c1.9-1.1,4.1,0.1,6.1-0.8c4.9-0.8,9.9-1.3,14.7-2.3c21.3-4.5,33.3-17.9,37.2-39
	c1.2-6.5,2.2-13.1,2.2-19.7c0.1-0.3,0.2-0.5,0.3-0.8c0.2,0.2,0.3,0.4,0.5,0.6l0,0c1.3,2.2-0.1,4.8,0.9,7.1
	c0.4,6.5,1.6,12.8,3.2,19.1c5.6,20.7,20.4,30.4,40.5,33.7c3.1,0.5,6.2,0.8,9.4,1.2c1.8,1.3,4.6-1.2,5.9,1.7c-8.5,0.6-16.8,1.7-25,4
	c-20.6,5.9-29.7,20.9-32.8,40.8c-0.8,5.1-1.3,10.2-2,15.3C-814.3-531.1-814.6-531.2-814.8-531.9z"/>
<path class="st14" d="M592.8,241.3c0.7,6.5,1.6,12.9,3.1,19.2c4.9,19.9,18.1,30.7,37.6,34.6c5.7,1.1,11.5,2.1,17.3,2.3
	c0.2,2.6-2.3,0.5-2.9,1.6c-8.1,0.7-16.1,2.1-23.9,4.7c-17.1,5.8-25.5,18.7-29,35.6c-1.1,5.2-1.5,10.5-2.3,15.8
	c-1.1,0.6-1.3-0.3-1.7-0.9c-0.7-7.1-1.8-14.1-3.8-21c-5.8-20.7-21.1-29.6-40.8-32.8c-4.1-0.7-8.3-0.8-12.4-1.2
	c-0.7-0.4-1.7-0.6-1-1.7c8-0.4,15.9-1.8,23.6-3.9c18.4-5.1,28.2-17.9,32-35.9c1.1-5,1.6-10.2,2.3-15.3
	C591.5,241.6,591.7,240.7,592.8,241.3z"/>
<path class="st14" d="M545.9-310.5c0.1,8.7,1.4,17.2,3.6,25.6c5.1,19,18,29.2,36.7,33c5.2,1.1,10.5,1.6,15.8,2.3
	c0.7,0.5,0.7,1.1,0,1.6c-8.3,0.8-16.4,2-24.3,4.7c-17.5,5.9-26.1,19-29.5,36.2c-1.1,5.4-1.5,10.8-2.3,16.2c-2.5,0.1-0.6-2.2-1.6-2.9
	c-0.8-6.9-1.9-13.8-3.9-20.5c-4.9-16.3-15.9-26.1-32.1-30.4c-6.3-1.7-12.7-2.6-19.2-3.2c-0.6-0.6-0.6-1.1,0-1.7
	c7.6-0.8,15.1-1.9,22.4-4.3c14.5-4.7,24.1-14.2,28.6-28.8c2.3-7.5,3.8-15.1,4-23C545.3-307,543.2-309.6,545.9-310.5z"/>
<path class="st15" d="M545.9-310.5c-0.6,1.6-1.2,3.3-1.7,4.9c-1.1-5.7,1.4-11.1,1.7-16.7C545.9-318.4,545.9-314.5,545.9-310.5z"/>
<path class="st16" d="M610.9-249.7c3.6-0.1,7.2-0.4,11.6,1.8c-4.6,0-8.1,0-11.6,0C610.4-248.5,610.4-249.1,610.9-249.7z"/>
<path class="st17" d="M-26.8,656.4c-2.3,0.6-4.6,1.1-6.9,1.7c-3.2,0-6.5,0-9.7,0C-37.8,657.8-32.5,655.3-26.8,656.4z"/>
<path class="st18" d="M-236.9-874.6c0-3.6,0-7.1,0-10.7c0.2,4.6,2.6,9,1.7,13.7C-237.3-871.7-236-873.8-236.9-874.6z"/>
<path class="st19" d="M-235.1-751.9c0.8,4.7-1.2,9.1-1.7,13.7c0-3.3,0-6.5,0-9.8C-235.7-749.1-237.8-751.6-235.1-751.9z"/>
<path class="st20" d="M592.9,364.1c0,2.3,0,4.5,0,7.6c-2.9-2.7-1.6-5.3-1.8-7.7C591.7,363.6,592.3,363.6,592.9,364.1z"/>
<path class="st21" d="M544.2-193.8c0.5,1,1.1,2,1.6,2.9c0,2.2,0,4.4,0,8C544.2-187.4,543.9-190.6,544.2-193.8z"/>
<path class="st22" d="M533.2,297.3c0.3,0.6,0.6,1.1,1,1.7c-3.1,0.6-6-0.5-9-0.9c-0.2-0.1-0.5-0.3-0.7-0.4c0.2-0.1,0.5-0.2,0.7-0.4
	C527.8,297.3,530.5,297.3,533.2,297.3z"/>
<path class="st23" d="M591.2,236.3c-0.2-2-0.6-4.1,1.1-6.6c1,2.6,0.8,4.6,0.6,6.6C592.3,236.8,591.7,236.8,591.2,236.3z"/>
<path class="st24" d="M-754.1-592c-2-0.6-4-1.1-5.9-1.7c4-0.5,7.9,0.7,11.9,1c0.2,0.1,0.5,0.2,0.7,0.4c-0.2,0.1-0.5,0.2-0.7,0.3
	C-750.1-592-752.1-592-754.1-592z"/>
<path class="st25" d="M89.9,658.1c-2-0.6-4-1.1-5.9-1.7c4.1-0.6,8,0.7,12,1c0.2,0.1,0.5,0.3,0.7,0.4c-0.2,0.1-0.5,0.2-0.7,0.4
	C93.9,658.1,91.9,658.1,89.9,658.1z"/>
<path class="st26" d="M647.9,299c1-0.5,2-1.1,2.9-1.6c2.3,0,4.7,0,7,0c0.8,0.2,0.8,0.4,0.1,0.8l0,0c-1.5,1.2-3.5-0.1-5.1,0.9
	C651.2,299.1,649.6,299,647.9,299z"/>
<path class="st27" d="M-236.9-874.6c0.6,1,1.1,2,1.7,3c0,1.6,0,3.2,0,4.8c-0.5-0.6-1.1-1.3-1.6-1.9
	C-236.8-870.7-236.9-872.6-236.9-874.6z"/>
<path class="st28" d="M591.2,236.3c0.6,0,1.1,0,1.7,0c0,1.7,0,3.3,0,5c-0.6,0.3-1.1,0.6-1.7,0.9
	C591.1,240.3,591.2,238.3,591.2,236.3z"/>
<path class="st29" d="M-732.7,141.9c2.2-1,4.6-0.7,7,0C-728,141.9-730.4,141.9-732.7,141.9z"/>
<path class="st24" d="M591.1,354.1c0.6,0.3,1.1,0.6,1.7,0.9c0,1.7,0,3.3,0,5c-1.1,0.7-1.3-0.3-1.7-0.9
	C591.1,357.5,591.1,355.8,591.1,354.1z"/>
<path class="st30" d="M-235.1-751.9c-0.6,1.3-1.2,2.6-1.7,3.9c0-2,0-3.9,0-5.9c0.5-0.6,1.1-1.3,1.6-1.9
	C-235.2-754.5-235.2-753.2-235.1-751.9z"/>
<path class="st31" d="M-428.6-483.5c-2.3,0.8-4.7,1-7.1,0C-433.4-483.5-431-483.5-428.6-483.5z"/>
<path class="st32" d="M601.9-248c0-0.5,0-1.1,0-1.6c1.7,0,3.3,0,5,0c0.7,0.5,0.7,1.1,0,1.6C605.2-248,603.6-248,601.9-248z"/>
<path class="st33" d="M-1017.7-211.2c0.7,2,0.9,4.1,0.3,6.7C-1018.7-207-1017.6-209.1-1017.7-211.2z"/>
<path class="st34" d="M-163.7-811.5c-1.8,0.8-3.9,0.8-6,0C-167.7-811.5-165.7-811.5-163.7-811.5z"/>
<path class="st35" d="M-814-654.8c-0.2,0.1-0.5,0.1-0.8,0.1c0-2.5,0-5,0-7.4c0.3,0,0.5,0,0.8,0C-814-659.7-814-657.2-814-654.8z"/>
<path class="st36" d="M-1017.4-72.5c0.4,2.2,0.7,4.3-0.3,7C-1018-68.4-1018.3-70.5-1017.4-72.5z"/>
<path class="st29" d="M-1090.4-139.3c2.1-0.5,4.2-0.9,6.8,0C-1086.3-138.4-1088.4-138.9-1090.4-139.3z"/>
<path class="st37" d="M29.2,589.6c0-1.9,0-3.9,0-5.8c0.2,0,0.4,0,0.5,0c0,2.1,0,4.1,0,6.2C29.5,589.9,29.3,589.7,29.2,589.6z"/>
<path class="st38" d="M658,298.2c0-0.3-0.1-0.6-0.1-0.8c2.6-0.2,5.2-0.5,7.7,0.8C663,298.2,660.5,298.2,658,298.2z"/>
<path class="st39" d="M591.1,359.1c0.6,0.3,1.1,0.6,1.7,0.9c0,1.4,0.1,2.7,0.1,4.1c-0.6,0-1.2,0-1.8,0
	C591.1,362.4,591.1,360.8,591.1,359.1z"/>
<path class="st40" d="M-501.1-417c0,2.2,0,4.5,0,8.2c-1.2-3.7-0.9-5.9-0.7-8.2C-501.6-417.4-501.4-417.4-501.1-417z"/>
<path class="st41" d="M482.1-247.9c-1.2-0.1-3.1,0.7-3.1-0.9s2-0.8,3.1-0.9C482.6-249.1,482.6-248.5,482.1-247.9z"/>
<path class="st42" d="M482.1-247.9c0-0.6,0-1.2,0-1.7c1.3,0,2.6,0,4,0c0.5,0.6,0.5,1.2,0,1.7C484.7-247.9,483.4-247.9,482.1-247.9z"
	/>
<path class="st43" d="M606.9-248c0-0.5,0-1.1,0-1.6c1.3,0,2.7-0.1,4-0.1c0,0.6,0,1.2,0,1.8C609.6-247.9,608.2-248,606.9-248z"/>
<path class="st44" d="M-951.2-139.6c2.3-0.3,4.6-0.5,7.1,0.3c-2.6,0.8-4.9,0.6-7.1,0.3C-951.2-139.2-951.2-139.4-951.2-139.6z"/>
<path class="st44" d="M-864.8,142c-2.3,0.3-4.6,0.5-7.1-0.3c2.6-0.8,4.9-0.6,7.1-0.3C-864.8,141.6-864.8,141.8-864.8,142z"/>
<path class="st40" d="M-798.3,214.7c-1.2-1.6-0.5-3.4-0.9-5.9C-797.2,211.3-798.5,213-798.3,214.7z"/>
<path class="st41" d="M95.9,658.1c0-0.3,0-0.5,0-0.8c2.3-0.1,4.5-0.4,7,0.4C100.4,658.5,98.1,658.2,95.9,658.1z"/>
<path class="st45" d="M525.1,297.3c0,0.3-0.1,0.5,0,0.8c-2.2,0-4.5,0.5-7-0.4C520.6,296.8,522.9,297.2,525.1,297.3z"/>
<path class="st46" d="M-310.7-811.1c2.8-0.8,4.6-0.9,7-0.3C-306.1-810.4-307.8-810.9-310.7-811.1z"/>
<path class="st47" d="M29.1,721.1c0.3,0.1,0.5,0.1,0.8,0c0,2.2,0,4.5,0,6.7c-0.3,0-0.5,0-0.8,0C29.1,725.6,29.1,723.3,29.1,721.1z"
	/>
<path class="st48" d="M-880.8-592c-2.3,0.2-4.5,0.5-7.1-0.3c2.6-0.8,4.8-0.6,7.1-0.3C-880.8-592.4-880.8-592.2-880.8-592z"/>
<path class="st49" d="M-748.1-592c0-0.2,0-0.5,0-0.7c2.2,0,4.5,0,6.7,0C-743.6-591.6-745.9-591.8-748.1-592z"/>
<path class="st50" d="M-501.8-549.6c-0.2-2.3-0.5-4.6,0.3-7.1c0.8,2.6,0.6,4.9,0.3,7.1C-501.4-549.6-501.6-549.6-501.8-549.6z"/>
<path class="st51" d="M-814.2-526c0,2.3,0,4.5,0,8.2c-1.2-3.6-0.9-5.9-0.7-8.2C-814.6-526-814.4-526-814.2-526z"/>
<path class="st52" d="M-567.8-483c-2.3,0.2-4.6,0.5-7.1-0.3c2.6-0.8,4.8-0.6,7.1-0.3C-567.8-483.4-567.8-483.2-567.8-483z"/>
<path class="st35" d="M-813.2-647.7c-1.2-2.2-1.2-4.6-0.9-7.1C-812.5-652.6-813-650.1-813.2-647.7z"/>
<path class="st53" d="M-798.2,77.4l-0.3,0l-0.3,0c0-1.9,0-3.9,0-7.1C-797.9,73.5-797.9,75.4-798.2,77.4z"/>
<path class="st54" d="M-880.8-592c0-0.2,0-0.4,0-0.6c1.9-0.1,3.9-0.1,5.8-0.2c0.1,0.3,0.1,0.6,0.1,0.9
	C-876.9-592-878.9-592-880.8-592z"/>
<path class="st54" d="M-868.9-593.6c-1.9,1.2-4,1.1-6.1,0.8C-873.1-594-871-593.8-868.9-593.6z"/>
<path class="st55" d="M486.1-247.9c0-0.6,0-1.2,0-1.7c1,0,2,0,3,0c0,0.6,0,1.1,0,1.7C488.1-248,487.1-247.9,486.1-247.9z"/>
<path class="st56" d="M-501.1-417l-0.4,0c0,0-0.4,0-0.4,0c-0.1-1.9-0.1-3.9-0.2-5.8c0.3-0.1,0.6-0.1,0.9-0.1
	C-501.2-420.9-501.1-418.9-501.1-417z"/>
<path class="st32" d="M-814.2-526l-0.3,0c0,0-0.3,0-0.3,0c0-2,0-3.9,0-5.9c0.3,0,0.6,0,0.8,0.1C-814-529.8-814.1-527.9-814.2-526z"
	/>
<path class="st57" d="M-502.1-542.9c0.3,2.1,0.5,4.2-0.7,6.1C-503-538.9-503.1-541-502.1-542.9z"/>
<path class="st57" d="M-501.8-549.6c0.2,0,0.4,0,0.6,0c0,2,0,3.9,0,5.9l-0.4,0l-0.4-0.1C-501.9-545.7-501.9-547.7-501.8-549.6z"/>
<path class="st30" d="M-951.2-139.6c0,0.2,0,0.4,0,0.6c-1.6,0-3.2,0-4.9,0c0-0.3,0-0.5,0-0.8C-954.4-139.7-952.8-139.6-951.2-139.6z
	"/>
<path class="st38" d="M652.9,299.1c1.6-1,3.3-1,5.1-0.9C656.5,299.6,654.7,299.2,652.9,299.1z"/>
<path class="st58" d="M-567.8-483c0-0.2,0-0.4,0-0.6c1.6,0,3.2,0,4.9,0c0,0.3,0,0.5,0,0.8C-564.6-482.9-566.2-482.9-567.8-483z"/>
<path class="st30" d="M-864.8,142c0-0.2,0-0.4,0-0.6c1.6,0,3.2,0,4.8-0.1c0,0.3,0,0.5,0,0.8C-861.6,142.1-863.2,142-864.8,142z"/>
<path class="st13" d="M482.9-777c-12.5-0.5-24.7-3.4-36.8-6.4c-98.1-24.5-174.8-79.1-229.9-163.9c-0.9-1.4-2.2-2.6-2-4.4
	c28.9-14,58.6-26.2,89.7-34.5c29.7-8,59.7-13.4,90.6-12.5c7.8,0.2,15.6,1.3,23.3,2.8c9.6,2,17.1,6.9,22.9,14.8
	c11.3,15.5,18.5,33.1,24.3,51.2c13.8,43.4,18.7,88.1,18.3,133.4C483.1-790,483-783.5,482.9-777z"/>
<path class="st2" d="M-310.8,1000.1c4.2-1.5,8.5-1.5,12.7,0C-302.4,1000.1-306.6,1000.1-310.8,1000.1z"/>
<path class="st59" d="M-325.8,999.1c3.6-1.5,7.1-1.5,10.7,0C-318.7,999.1-322.3,999.1-325.8,999.1z"/>
<path class="st60" d="M-348.8,997.1c2.6-1.4,5.1-1.4,7.7,0C-343.7,997.1-346.3,997.1-348.8,997.1z"/>
<path class="st61" d="M-337.9,998.1c2.6-1.5,5.1-1.4,7.7,0C-332.8,998.1-335.3,998.1-337.9,998.1z"/>
<path class="st62" d="M-367.8,995.1c2.2-1.5,4.5-1.3,6.8-0.1C-363.3,995.1-365.6,995.1-367.8,995.1z"/>
<path class="st63" d="M-358.8,996.1c2.2-1.4,4.4-1.4,6.6,0C-354.4,996.1-356.6,996.1-358.8,996.1z"/>
<path class="st63" d="M-383.8,993.1c1.9-1.4,3.7-1.3,5.6,0C-380.1,993.1-381.9,993.1-383.8,993.1z"/>
<path class="st64" d="M-404.8,990.1c1.6-1.3,3.1-1.3,4.7,0C-401.7,990.1-403.3,990.1-404.8,990.1z"/>
<path class="st65" d="M-390.9,992.2c1.6-1.4,3.2-1.3,4.8-0.1C-387.8,992.1-389.4,992.1-390.9,992.2z"/>
<path class="st66" d="M-375.9,994.1c1.6-1.3,3.2-1.3,4.7,0C-372.7,994.1-374.3,994.1-375.9,994.1z"/>
<path class="st67" d="M-397.8,991.1c1.6-1.3,3.2-1.2,4.8,0C-394.6,991.1-396.2,991.1-397.8,991.1z"/>
<path class="st68" d="M-896,436.2c12.7,0.5,24.5,4.7,35.8,10c19.3,9.1,35.7,22,47,40.4c11.5,18.6,15.8,38.4,6.4,59.3
	c-8,17.8-22.7,27.6-40.8,33.2c-4.4,1.4-9.1,2.1-13.6,3.1c-9.2-0.5-18-2.3-26.5-5.9c-24-9.9-43.6-25-56.6-47.7
	c-8.9-15.5-12.7-32.2-7.4-49.9c7-23.4,24.1-35.8,46.8-41.8C-902,436.1-898.9,437.3-896,436.2z"/>
<path class="st68" d="M-685.1,677.3c38.2,2,70.3,15.8,92,48.5c16.3,24.4,13.6,54.6-7,73.9c-9.9,9.3-22.1,14.7-35,18.4
	c-19.4,0.9-37-4.9-53.6-14.2c-18.7-10.5-34-24.5-42.5-44.8c-16.9-40,10.6-75,43.3-81.1C-687,677.9-686,677.8-685.1,677.3z"/>
<path class="st68" d="M-627.2,531.3c16.9,10.7,30.1,24.6,36.3,44.1c3.8,12.1,4.2,23.9-1.1,36c-7,16-26.2,23-41.7,20.4
	c-4.2-0.7-8.6-1.1-12.4-3.4c-3.7-3.3-8-5.7-11.6-9.2c-13-13-20.4-28.5-22.1-46.7c-2.7-27.6,23.2-49.2,49.7-41.5
	C-629.1,531.2-628.2,531.4-627.2,531.3z"/>
<path class="st69" d="M-896,436.2c-6.8,2.4-14,3.8-20.8,6.6c-27.5,11.4-41.3,40.5-32.4,69.2c7.9,25.3,25.5,42.3,47.6,55.2
	c11.2,6.6,23.4,11.1,36.4,13.1c1.4,0.2,2.7,1.1,4.1,1.7c-22.6,2.9-44.1-1.2-64.5-11c-25.5-12.3-45.7-30.2-54.6-57.9
	c-11-34.4,7.6-64.7,43.7-74.8C-923.2,434.6-909.7,434.2-896,436.2z"/>
<path class="st69" d="M-685.1,677.3c-6.7,4-14.4,5.7-21.2,9.9c-28.9,17.8-35.3,49.9-20.4,76.8c16.4,29.5,43.1,44.8,75.4,51.3
	c5.3,1.1,10.9,0.9,16.1,2.8c-37.4,7.8-71.1-0.4-100.8-24c-17.2-13.7-28.4-31.4-29.8-53.9c-0.8-13.6,3.7-26,12.7-36.4
	c13.9-16.1,32.2-23.5,53-25.7c2.2-1.1,4.8,0.3,7.1-0.9C-690.4,677.3-687.7,677.3-685.1,677.3z"/>
<path class="st69" d="M-627.2,531.3c-3.9,1.5-7.8-0.2-11.6-0.3c-25.2-0.6-41.7,20.2-38.4,44.7c2.8,20.7,13.3,36.4,29.3,49.1
	c1.9,1.5,2.1,1.7,1.9,3.4c-28-11.1-46.1-30.7-49.9-61.2c-3.7-29.1,17.1-47.7,46.3-43.6C-641.7,524.7-634.3,527.5-627.2,531.3z"/>
<path class="st68" d="M-693,677.3c-2.2,1.5-4.7,0.8-7.1,0.9C-697.8,676.6-695.3,677.3-693,677.3z"/>
<path class="st70" d="M331.7-597.3c-0.6,86.6-70.7,156.2-156.9,155.8C88.4-442,18.6-512.4,19.1-598.4
	c0.6-86.7,70.9-156.1,157.6-155.5C262.6-753.3,332.4-682.8,331.7-597.3z"/>
<path class="st13" d="M-212-85.6c2.7-0.8,3.5-3.4,5-5.4c26.4-35.8,54.2-70.6,86.4-101.4c11.8-11.3,24.2-22,38.5-30
	c4.7-2.6,9.5-4.8,14.9-5.6c9.3-1.5,15,2.4,17.2,11.6c1.9,8.3,1,16.6-0.6,24.8c-5.3,28.2-16.1,54.5-27.9,80.5
	c-12.2,27-26.1,53.2-40.8,78.9c-1,1.7-2.4,3.2-2.5,5.3c0.5,2.6-0.9,4.5-2.1,6.5c-18.5,31.2-38.2,61.6-59.1,91.2
	c-1.9,2.7-3.7,5.5-5.5,8.3c-8.6,10.6-16.4,21.8-24.8,32.6c-22,28.3-45.6,55.2-71.8,79.7c-11.4,10.7-23.7,20.5-37.9,27.4
	c-3.3,1.6-6.7,2.8-10.4,3.5c-10.4,1.9-17.6-2.7-20-13.1c-1.8-7.6-1.1-15.3,0-22.8c2.6-17.4,8.2-33.9,14.5-50.3
	c14.8-38.9,33.9-75.6,54.5-111.7c1.2-2,2.4-4,3.8-5.9c6.6-12.5,14.3-24.4,21.7-36.3c13.6-21.7,27.7-43,42.7-63.8
	C-215-83.1-214-84.9-212-85.6z"/>
<path class="st71" d="M-212-85.6c-1.3,5-5.1,8.5-7.9,12.5c-19,26.8-36.4,54.6-53.6,82.6c-2,3.2-3.8,6.6-5.6,10
	c-1.7,0.8-3.2,0.3-4.7-0.6c-6.2-4.1-12.6-7.8-18.6-12.1c-1.5-1-3-2.1-2.7-4.3c2.5-6.9,7-12.8,10.7-19.1c12-19.8,24.4-39.3,37.5-58.3
	c5.1-7.4,10.3-14.7,15.4-22.1c1.2-1.7,2.7-3.4,2.5-5.8C-229.6-97.7-220.9-91.5-212-85.6z"/>
<path class="st71" d="M-189,78.1c-0.7-3.5,2.3-5.3,3.9-7.5c21.9-31,42.3-62.9,61.7-95.5c0.4-0.7,1-1.3,1.5-1.9
	c9.2,5.3,18.1,11.2,26.8,17.3c-2.9,1.5-3.9,4.5-5.4,7c-15.4,25.8-31.7,51-48.6,75.8c-4.9,7.1-10,14-15,21c-1.7,1.1-3.2,0.3-4.6-0.6
	c-5.8-3.8-11.7-7.4-17.5-11.2C-187.6,81.4-189.1,80.2-189,78.1z"/>
<path class="st72" d="M-189,78.1c8.3,5.4,16.7,10.8,25,16.1c9.3,6.3,18.7,12.6,28,18.9c-2.1,0.4-2.8,2.2-3.8,3.7
	c-18.7,29-39.1,56.6-61,83.3c-10.4,12.7-21.3,25.1-32.6,37.1c-7.2,7.6-14.3,15.3-21.9,22.6c-24.1,23.2-49.3,45.1-78.2,62.3
	c-15.4,9.2-31.4,16.7-49.1,20.4c-15.6,3.2-30.6,2.1-43.5-8.4c-10.4-8.5-15.6-20.2-18-33.1c-4.4-24.4-2.4-48.7,2.4-72.8
	c8.1-41,22.5-80,39.5-118.1c18.8-42.2,41.2-82.4,66.2-121.2c0.9-1.4,2-2.7,1.8-4.5c7.9,5.1,15.8,10.1,23.8,15.2
	c1.7,1.1,3.5,1.9,5.2,2.8c8.3,6.3,17.2,11.5,25.9,17c-22.4,38.5-43,77.8-58.7,119.6c-7.1,19-13.7,38.3-14.6,58.9
	c-0.2,5.1,0.1,10.3,2.3,15.1c2.9,6.3,8.2,9.1,15.1,7.8c13.9-2.7,24.9-10.9,35.5-19.5c24.2-19.8,45.2-42.7,65.2-66.7
	c14.5-17.4,28.4-35.2,41.6-53.6C-191.8,79.6-190.9,78.2-189,78.1z"/>
<path class="st73" d="M172.3-691.4c48.9-1.5,92.5,34.5,96.5,86.6c4,52.8-35.4,97.4-88.2,100.8c-49.7,3.2-95.3-36.4-98.5-85.6
	C78.5-644.6,116.7-687.8,172.3-691.4z"/>
</svg>
