<svg xmlns="http://www.w3.org/2000/svg" width="24.002" height="15" viewBox="0 0 24.002 15"><path d="M6.895,15a.881.881,0,0,1-.651-.288L.23,8.095a.881.881,0,0,1,0-1.189L6.244.288A.881.881,0,0,1,6.895,0H23.12A.882.882,0,0,1,24,.882V14.118a.882.882,0,0,1-.88.882ZM2.071,7.5l5.213,5.736H22.24V1.764H7.284Zm8.271,2.74a.885.885,0,0,1-.008-1.279L12.228,7.1,10.342,5.3a.885.885,0,0,1-.007-1.279.955.955,0,0,1,1.319-.007l1.886,1.805,1.833-1.8a.954.954,0,0,1,1.319-.008A.885.885,0,0,1,16.7,5.29l-1.832,1.8,1.886,1.805a.884.884,0,0,1,.007,1.278.954.954,0,0,1-1.319.008L13.557,8.374l-1.895,1.859a.957.957,0,0,1-1.32.008Z" transform="translate(0.001)" fill="#acb5c5"/></svg>