<svg xmlns="http://www.w3.org/2000/svg" width="18" height="12.865" viewBox="0 0 18 12.865"><path d="M2.758,12.675a.644.644,0,0,1,0-.914l.945-.938A8.124,8.124,0,0,1,.045,6.664.582.582,0,0,1,0,6.432V6.368a.587.587,0,0,1,.045-.232C1.286,2.8,4.828.646,9,.646a10.928,10.928,0,0,1,4.1.785L14.329.19a.646.646,0,1,1,.913.913L3.671,12.675a.644.644,0,0,1-.914,0Zm2.835-.99L7.335,9.942A3.8,3.8,0,0,0,9,10.29a3.858,3.858,0,0,0,3.857-3.857,3.784,3.784,0,0,0-.38-1.665L14.9,2.35a8.05,8.05,0,0,1,3.06,3.786A.587.587,0,0,1,18,6.368v.1a.582.582,0,0,1-.045.231c-1.241,3.343-4.751,5.516-8.9,5.516H9.017A11.247,11.247,0,0,1,5.593,11.685ZM8.357,8.914l3.15-3.15a2.571,2.571,0,0,1,.064.669A2.571,2.571,0,0,1,9,9,2.545,2.545,0,0,1,8.357,8.914Z" transform="translate(0)" fill="#b0b0c3"/></svg>