<svg xmlns="http://www.w3.org/2000/svg" width="29.991" height="29.991" viewBox="0 0 29.991 29.991"><g transform="translate(-0.005 -0.005)"><path d="M8.813,29.9a11,11,0,0,1-3.64-.7,7.338,7.338,0,0,1-2.656-1.73,7.338,7.338,0,0,1-1.73-2.656,11.007,11.007,0,0,1-.7-3.64C.017,19.579,0,19.067,0,14.995s.017-4.583.091-6.182a11,11,0,0,1,.7-3.64A7.363,7.363,0,0,1,2.517,2.516,7.347,7.347,0,0,1,5.173.788a11,11,0,0,1,3.64-.7C10.412.017,10.924,0,15,0s4.583.017,6.183.091a11.01,11.01,0,0,1,3.64.7,7.363,7.363,0,0,1,2.657,1.731A7.347,7.347,0,0,1,29.2,5.173a11,11,0,0,1,.7,3.64c.073,1.6.09,2.111.09,6.182s-.017,4.584-.09,6.183a11,11,0,0,1-.7,3.64A7.664,7.664,0,0,1,24.818,29.2a11.006,11.006,0,0,1-3.641.7c-1.6.073-2.11.09-6.182.09S10.412,29.974,8.813,29.9ZM14.995,0h0Z" transform="translate(0.005 0.005)" fill="#fff"/><path d="M0,7.7a7.7,7.7,0,1,1,7.7,7.7A7.7,7.7,0,0,1,0,7.7Z" transform="translate(7.3 7.3)" fill="#fff"/><circle cx="1.799" cy="1.799" r="1.799" transform="translate(21.205 5.196)" fill="#fff"/></g></svg>