<svg id="Twitter_icon" xmlns="http://www.w3.org/2000/svg" width="37.5" height="29.464" viewBox="0 0 37.5 29.464">
  <g id="iconfinder_1_Twitter_colored_svg_5296514">
    <rect id="Rectangle" width="26.786" height="28.125" transform="translate(10.714)" fill="none"/>
    <path id="Path" d="M10.951,29.464c13.14,0,20.327-11.337,20.327-21.168,0-.322,0-.643-.021-.962a14.885,14.885,0,0,0,3.564-3.851,13.823,13.823,0,0,1-4.1,1.17A7.422,7.422,0,0,0,33.859.539a13.98,13.98,0,0,1-4.537,1.806A7.023,7.023,0,0,0,24.113,0a7.338,7.338,0,0,0-7.151,7.447,7.746,7.746,0,0,0,.185,1.684A20.034,20.034,0,0,1,2.424,1.357a7.665,7.665,0,0,0,2.212,9.931,6.877,6.877,0,0,1-3.243-.931v.094a7.4,7.4,0,0,0,5.732,7.293,6.86,6.86,0,0,1-3.226.128,7.209,7.209,0,0,0,6.675,5.167A13.98,13.98,0,0,1,1.7,26.23,13.963,13.963,0,0,1,0,26.122a19.646,19.646,0,0,0,10.951,3.336" fill="#fff"/>
  </g>
</svg>
